{
    "criteria": [
        {
            "criterion": "AllDocuments",
            "passed": true,
            "reason": "All documents pass."
        },
        {
            "criterion": "QuestionAnswerStringsV2",
            "passed": false,
            "reason": "Does not meet criterion."
        },
        {
            "criterion": "FullyStructured",
            "passed": false,
            "reason": "Does not meet criterion."
        },
        {
            "criterion": "ExamStringsV2",
            "passed": false,
            "reason": "Does not meet criterion."
        },
        {
            "criterion": "ExamplesStrings",
            "passed": false,
            "reason": "Does not meet criterion."
        },
        {
            "criterion": "ExamplesStringsV2",
            "passed": false,
            "reason": "Does not meet criterion."
        },
        {
            "criterion": "ListPrefixV2",
            "passed": true,
            "reason": "Text contains ['0', '0', '0', '0', '0', '0', '0', '0', '0', '0', '0', '0', '0', '0', '0', '0', '0', '0', '0', '0', '0', '0', '0', '0', '0', '0', '0', '0', '0', '0', '0', '0', '0', '0', '0', '0', '0', '0', '0', '0', '0', '0', '0', '0', '0', '0', '0', '0', '0', '0']."
        },
        {
            "criterion": "ExamplesMinimalEmbed",
            "passed": false,
            "reason": "Does not meet criterion."
        },
        {
            "criterion": "ExamplesSynonymsEmbed",
            "passed": false,
            "reason": "Does not meet criterion."
        },
        {
            "criterion": "ExamplesDiverseEmbed",
            "passed": false,
            "reason": "Does not meet criterion."
        }
    ],
    "doc_id": "2726",
    "text": "#tb 0: 1/25\n0,          0,          0,        1,   152064, 0x05b789ef\n0,          1,          1,        1,   152064, 0x4bb46551\n0,          2,          2,        1,   152064, 0x9dddf64a\n0,          3,          3,        1,   152064, 0x2a8380b0\n0,          4,          4,        1,   152064, 0x4de3b652\n0,          5,          5,        1,   152064, 0xedb5a8e6\n0,          6,          6,        1,   152064, 0xe20f7c23\n0,          7,          7,        1,   152064, 0x5ab58bac\n0,          8,          8,        1,   152064, 0x1f1b8026\n0,          9,          9,        1,   152064, 0x91373915\n0,         10,         10,        1,   152064, 0x02344760\n0,         11,         11,        1,   152064, 0x30f5fcd5\n0,         12,         12,        1,   152064, 0xc711ad61\n0,         13,         13,        1,   152064, 0x24eca223\n0,         14,         14,        1,   152064, 0x52a48ddd\n0,         15,         15,        1,   152064, 0xa91c0f05\n0,         16,         16,        1,   152064, 0x8e364e18\n0,         17,         17,        1,   152064, 0xb15d38c8\n0,         18,         18,        1,   152064, 0xf25f6acc\n0,         19,         19,        1,   152064, 0xf34ddbff\n0,         20,         20,        1,   152064, 0xfc7bf570\n0,         21,         21,        1,   152064, 0x9dc72412\n0,         22,         22,        1,   152064, 0x445d1d59\n0,         23,         23,        1,   152064, 0x2f2768ef\n0,         24,         24,        1,   152064, 0xce09f9d6\n0,         25,         25,        1,   152064, 0x95579936\n0,         26,         26,        1,   152064, 0x43d796b5\n0,         27,         27,        1,   152064, 0xd780d887\n0,         28,         28,        1,   152064, 0x76d2a455\n0,         29,         29,        1,   152064, 0x6dc3650e\n0,         30,         30,        1,   152064, 0x0f9d6aca\n0,         31,         31,        1,   152064, 0xe295c51e\n0,         32,         32,        1,   152064, 0xd766fc8d\n0,         33,         33,        1,   152064, 0xe22f7a30\n0,         34,         34,        1,   152064, 0x7fea4378\n0,         35,         35,        1,   152064, 0xfa8d94fb\n0,         36,         36,        1,   152064, 0x4c9737ab\n0,         37,         37,        1,   152064, 0xa50d01f8\n0,         38,         38,        1,   152064, 0x0b07594c\n0,         39,         39,        1,   152064, 0x88734edd\n0,         40,         40,        1,   152064, 0xd2735925\n0,         41,         41,        1,   152064, 0xd4e49e08\n0,         42,         42,        1,   152064, 0x20cebfa9\n0,         43,         43,        1,   152064, 0x575c20ec\n0,         44,         44,        1,   152064, 0xfd500471\n0,         45,         45,        1,   152064, 0x61b47e73\n0,         46,         46,        1,   152064, 0x09ef53ff\n0,         47,         47,        1,   152064, 0x6e88c5c2\n0,         48,         48,        1,   152064, 0xbb87b483\n0,         49,         49,        1,   152064, 0x4bbad8ea\n"
}